<svg width="1437" height="672" viewBox="0 0 1437 672" fill="none" xmlns="http://www.w3.org/2000/svg">
<path d="M-3 11.2432C-3 11.2432 260 0 685 0C1110 0 1437 11.2432 1437 11.2432V341.622V672C1437 672 1378 672 939 672C500 672 -3 672 -3 672V11.2432Z" fill="#EFF5FB"/>
<path d="M-3 11.2432C-3 11.2432 260 0 685 0C1110 0 1437 11.2432 1437 11.2432V341.622V672C1437 672 1378 672 939 672C500 672 -3 672 -3 672V11.2432Z" fill="url(#paint0_linear_4492_2127)"/>
<defs>
<linearGradient id="paint0_linear_4492_2127" x1="717" y1="281.899" x2="717" y2="472.216" gradientUnits="userSpaceOnUse">
<stop stop-color="white" stop-opacity="0"/>
<stop offset="1" stop-color="white"/>
</linearGradient>
</defs>
</svg>
