<svg width="1431" height="82" viewBox="0 0 1431 82" fill="none" xmlns="http://www.w3.org/2000/svg">
<path d="M-9 11.2432C-9 11.2432 254 0 679 0C1104 0 1431 11.2432 1431 11.2432V672C1431 672 1372 672 933 672C494 672 -9 672 -9 672V11.2432Z" fill="#EFF5FB"/>
<path d="M-9 11.2432C-9 11.2432 254 0 679 0C1104 0 1431 11.2432 1431 11.2432V672C1431 672 1372 672 933 672C494 672 -9 672 -9 672V11.2432Z" fill="url(#paint0_linear_4492_1367)"/>
<defs>
<linearGradient id="paint0_linear_4492_1367" x1="711" y1="281.899" x2="711" y2="472.216" gradientUnits="userSpaceOnUse">
<stop stop-color="white" stop-opacity="0"/>
<stop offset="1" stop-color="white"/>
</linearGradient>
</defs>
</svg>
